<svg width="28" height="28" viewBox="0 0 28 28" fill="none" xmlns="http://www.w3.org/2000/svg">
<path d="M12 13.5C14.2091 13.5 16 11.7091 16 9.5C16 7.29086 14.2091 5.5 12 5.5C9.79086 5.5 8 7.29086 8 9.5C8 11.7091 9.79086 13.5 12 13.5Z" fill="#AEAEAE"/>
<path d="M12.35 15.51C9.62 15.41 4 16.77 4 19.5V21.5H13.54C11.07 18.74 12.31 15.61 12.35 15.51Z" fill="#AEAEAE"/>
<path d="M21.43 19.52C21.79 18.93 22 18.24 22 17.5C22 15.29 20.21 13.5 18 13.5C15.79 13.5 14 15.29 14 17.5C14 19.71 15.79 21.5 18 21.5C18.74 21.5 19.43 21.28 20.02 20.93L22.59 23.5L24 22.09L21.43 19.52ZM18 19.5C16.9 19.5 16 18.6 16 17.5C16 16.4 16.9 15.5 18 15.5C19.1 15.5 20 16.4 20 17.5C20 18.6 19.1 19.5 18 19.5Z" fill="#AEAEAE"/>
</svg>