<svg width="24" height="32" viewBox="0 0 24 32" fill="none" xmlns="http://www.w3.org/2000/svg">
<g clip-path="url(#clip0_1_7418)">
<path fill-rule="evenodd" clip-rule="evenodd" d="M23.7508 15.6808C23.7508 15.1226 23.6988 14.5857 23.6024 14.0703H15.9141V17.116H20.3074C20.1181 18.1002 19.543 18.9341 18.6784 19.4924V21.4678H21.3167C22.8603 20.0971 23.7508 18.0786 23.7508 15.6808Z" fill="#4285F4"/>
<path fill-rule="evenodd" clip-rule="evenodd" d="M15.9121 23.3697C18.1161 23.3697 19.964 22.6647 21.3147 21.4622L18.6764 19.4866C17.9454 19.959 17.0104 20.2382 15.9121 20.2382C13.786 20.2382 11.9863 18.8531 11.3443 16.9922H8.61719V19.0321C9.96032 21.6053 12.721 23.3697 15.9121 23.3697Z" fill="#34A853"/>
<path fill-rule="evenodd" clip-rule="evenodd" d="M11.3455 16.9929C11.1822 16.5205 11.0895 16.0158 11.0895 15.4969C11.0895 14.978 11.1823 14.4734 11.3456 14.001V11.9609H8.6183C8.04685 13.0581 7.7495 14.2691 7.75 15.4969C7.75 16.7674 8.06537 17.9699 8.6183 19.0329L11.3455 16.9929Z" fill="#FBBC05"/>
<path fill-rule="evenodd" clip-rule="evenodd" d="M15.9122 10.7565C17.1107 10.7565 18.1867 11.1537 19.0328 11.934L21.3741 9.6757C19.9604 8.40518 18.1125 7.625 15.9122 7.625C12.721 7.625 9.96041 9.38937 8.61719 11.9626L11.3444 14.0026C11.9863 12.1415 13.786 10.7565 15.9122 10.7565Z" fill="#EA4335"/>
</g>
<defs>
<clipPath id="clip0_1_7418">
<rect width="23.5" height="32" fill="white"/>
</clipPath>
</defs>
</svg>