<svg width="13" height="7" viewBox="0 0 13 7" fill="none" xmlns="http://www.w3.org/2000/svg">
<path d="M6.09234 7C5.86313 7 5.65455 6.90832 5.4666 6.72495L0.233792 1.36837C0.155861 1.29502 0.0962672 1.21251 0.0550098 1.12083C0.0183366 1.02456 0 0.921415 0 0.811395C0 0.660118 0.0343811 0.522593 0.103143 0.398821C0.17649 0.275049 0.272757 0.178782 0.391945 0.11002C0.511133 0.0366732 0.646365 0 0.797642 0C1.01768 0 1.21022 0.0825147 1.37525 0.247544L6.42927 5.42534H5.76228L10.8094 0.247544C10.9745 0.0825147 11.167 0 11.387 0C11.5383 0 11.6735 0.0366732 11.7927 0.11002C11.9119 0.178782 12.0059 0.275049 12.0747 0.398821C12.148 0.522593 12.1847 0.660118 12.1847 0.811395C12.1847 1.02685 12.1067 1.21251 11.9509 1.36837L6.71807 6.72495C6.63098 6.81663 6.53471 6.8854 6.42927 6.93124C6.32384 6.97708 6.21153 7 6.09234 7Z" fill="#4285F4"/>
</svg>