<svg width="28" height="28" viewBox="0 0 28 28" fill="none" xmlns="http://www.w3.org/2000/svg">
<path d="M15.7337 23C16.0623 23 16.3428 22.8754 16.5751 22.6261C16.8074 22.3824 17.0028 22.0567 17.1615 21.6487L22.762 6.98867C22.8357 6.79603 22.8923 6.61756 22.932 6.45326C22.9717 6.28895 22.9915 6.13314 22.9915 5.98584C22.9915 5.68555 22.9037 5.44759 22.728 5.27195C22.5524 5.09065 22.3144 5 22.0142 5C21.8725 5 21.7167 5.02266 21.5467 5.06799C21.3768 5.10765 21.1955 5.16147 21.0028 5.22946L6.29178 10.864C5.92351 11.0057 5.61473 11.1926 5.36544 11.4249C5.12181 11.6572 5 11.9377 5 12.2663C5 12.6686 5.13598 12.966 5.40793 13.1586C5.67989 13.3456 6.02266 13.5014 6.43626 13.6261L10.847 14.9773C11.1416 15.068 11.3881 15.1048 11.5864 15.0878C11.7847 15.0652 11.9887 14.9575 12.1983 14.7649L21.6572 5.99433C21.7139 5.94334 21.7734 5.91785 21.8357 5.91785C21.9037 5.91785 21.9632 5.94051 22.0142 5.98584C22.0595 6.03116 22.0821 6.08782 22.0821 6.15581C22.0821 6.21813 22.0538 6.27762 21.9972 6.33428L13.2606 15.8187C13.0793 16.0113 12.9745 16.2096 12.9462 16.4136C12.9235 16.6176 12.9547 16.8697 13.0397 17.17L14.3484 21.4873C14.4788 21.9235 14.6402 22.2833 14.8329 22.5666C15.0255 22.8555 15.3258 23 15.7337 23Z" fill="#AEAEAE"/>
</svg>