<svg width="20" height="20" viewBox="0 0 20 20" fill="none" xmlns="http://www.w3.org/2000/svg">
<g clip-path="url(#clip0_5_2475)">
<mask id="path-1-inside-1_5_2475" fill="white">
<path d="M18.3332 4.99992C18.3332 4.08325 17.5832 3.33325 16.6665 3.33325H3.33317C2.4165 3.33325 1.6665 4.08325 1.6665 4.99992V14.9999C1.6665 15.9166 2.4165 16.6666 3.33317 16.6666H16.6665C17.5832 16.6666 18.3332 15.9166 18.3332 14.9999V4.99992ZM16.6665 4.99992L9.99984 9.16658L3.33317 4.99992H16.6665ZM16.6665 14.9999H3.33317V6.66659L9.99984 10.8333L16.6665 6.66659V14.9999Z"/>
</mask>
<path d="M16.6665 4.99992L17.7265 6.69592L23.6401 2.99992H16.6665V4.99992ZM9.99984 9.16658L8.93984 10.8626L9.99984 11.5251L11.0598 10.8626L9.99984 9.16658ZM3.33317 4.99992V2.99992H-3.64042L2.27317 6.69592L3.33317 4.99992ZM16.6665 14.9999V16.9999H18.6665V14.9999H16.6665ZM3.33317 14.9999H1.33317V16.9999H3.33317V14.9999ZM3.33317 6.66659L4.39317 4.97059L1.33317 3.05809V6.66659H3.33317ZM9.99984 10.8333L8.93984 12.5292L9.99984 13.1917L11.0598 12.5292L9.99984 10.8333ZM16.6665 6.66659H18.6665V3.05809L15.6065 4.97059L16.6665 6.66659ZM20.3332 4.99992C20.3332 2.97868 18.6877 1.33325 16.6665 1.33325V5.33325C16.4786 5.33325 16.3332 5.18782 16.3332 4.99992H20.3332ZM16.6665 1.33325H3.33317V5.33325H16.6665V1.33325ZM3.33317 1.33325C1.31193 1.33325 -0.333496 2.97868 -0.333496 4.99992H3.6665C3.6665 5.18782 3.52107 5.33325 3.33317 5.33325V1.33325ZM-0.333496 4.99992V14.9999H3.6665V4.99992H-0.333496ZM-0.333496 14.9999C-0.333496 17.0212 1.31193 18.6666 3.33317 18.6666V14.6666C3.52107 14.6666 3.6665 14.812 3.6665 14.9999H-0.333496ZM3.33317 18.6666H16.6665V14.6666H3.33317V18.6666ZM16.6665 18.6666C18.6877 18.6666 20.3332 17.0212 20.3332 14.9999H16.3332C16.3332 14.812 16.4786 14.6666 16.6665 14.6666V18.6666ZM20.3332 14.9999V4.99992H16.3332V14.9999H20.3332ZM15.6065 3.30392L8.93984 7.47059L11.0598 10.8626L17.7265 6.69592L15.6065 3.30392ZM11.0598 7.47059L4.39317 3.30392L2.27317 6.69592L8.93984 10.8626L11.0598 7.47059ZM3.33317 6.99992H16.6665V2.99992H3.33317V6.99992ZM16.6665 12.9999H3.33317V16.9999H16.6665V12.9999ZM5.33317 14.9999V6.66659H1.33317V14.9999H5.33317ZM2.27317 8.36258L8.93984 12.5292L11.0598 9.13726L4.39317 4.97059L2.27317 8.36258ZM11.0598 12.5292L17.7265 8.36258L15.6065 4.97059L8.93984 9.13726L11.0598 12.5292ZM14.6665 6.66659V14.9999H18.6665V6.66659H14.6665Z" fill="#BFBFBF" mask="url(#path-1-inside-1_5_2475)"/>
</g>
<defs>
<clipPath id="clip0_5_2475">
<rect width="20" height="20" fill="white"/>
</clipPath>
</defs>
</svg>




